HIERARCHY
ROOT Hips
{
	OFFSET 0.000000 0.000000 0.000000
	CHANNELS 6 Xposition Yposition Zposition Zrotation Yrotation Xrotation 
	JOINT LeftUpLeg_virtual
	{
		OFFSET 0.000000 0.000000 0.000000
		CHANNELS 3 Zrotation Yrotation Xrotation
		JOINT LeftUpLeg
		{
			OFFSET 8.479694 -4.795517 -0.379053
			CHANNELS 3 Zrotation Yrotation Xrotation
			JOINT LeftLeg
			{
				OFFSET 0.485052 -32.551468 0.112863
				CHANNELS 3 Zrotation Yrotation Xrotation
				JOINT LeftFoot
				{
					OFFSET 0.438033 -32.635670 -3.012641
					CHANNELS 3 Zrotation Yrotation Xrotation
					JOINT LeftToeBase
					{
						OFFSET 0.970169 -13.225353 11.864223
						CHANNELS 3 Zrotation Yrotation Xrotation
						End Site
						{
							OFFSET 0.000000 0.000000 0.000000
						}
					}
				}
			}
		}
	}
	JOINT RightUpLeg_virtual
	{
		OFFSET 0.000000 0.000000 0.000000
		CHANNELS 3 Zrotation Yrotation Xrotation
		JOINT RightUpLeg
		{
			OFFSET -8.479694 -4.795517 -0.379053
			CHANNELS 3 Zrotation Yrotation Xrotation
			JOINT RightLeg
			{
				OFFSET -0.484100 -32.551483 0.112903
				CHANNELS 3 Zrotation Yrotation Xrotation
				JOINT RightFoot
				{
					OFFSET -0.438985 -32.635651 -3.012681
					CHANNELS 3 Zrotation Yrotation Xrotation
					JOINT RightToeBase
					{
						OFFSET -0.970169 -13.225354 11.864223
						CHANNELS 3 Zrotation Yrotation Xrotation
						End Site
						{
							OFFSET 0.000000 0.000000 0.000000
						}
					}
				}
			}
		}
	}
	JOINT Spine_virtual
	{
		OFFSET 0.000000 0.000000 0.000000
		CHANNELS 3 Zrotation Yrotation Xrotation
		JOINT Spine
		{
			OFFSET 0.000000 7.722015 1.166203
			CHANNELS 3 Zrotation Yrotation Xrotation
			JOINT Spine1
			{
				OFFSET 0.000000 12.024086 0.248766
				CHANNELS 3 Zrotation Yrotation Xrotation
				JOINT Spine2
				{
					OFFSET -0.000000 11.503036 -0.491240
					CHANNELS 3 Zrotation Yrotation Xrotation
					JOINT Neck_virtual
					{
						OFFSET 0.000000 0.000000 0.000000
						CHANNELS 3 Zrotation Yrotation Xrotation
						JOINT Neck
						{
							OFFSET 0.000000 18.430687 -3.123054
							CHANNELS 3 Zrotation Yrotation Xrotation
							JOINT Head
							{
								OFFSET -0.000000 9.051071 1.034021
								CHANNELS 3 Zrotation Yrotation Xrotation
								End Site
								{
									OFFSET 0.000000 0.000000 0.000000
								}
							}
						}
					}
					JOINT LeftShoulder_virtual
					{
						OFFSET 0.000000 0.000000 0.000000
						CHANNELS 3 Zrotation Yrotation Xrotation
						JOINT LeftShoulder
						{
							OFFSET 6.197824 13.665230 -4.064723
							CHANNELS 3 Zrotation Yrotation Xrotation
							JOINT LeftArm
							{
								OFFSET 7.778132 -0.187073 -1.709282
								CHANNELS 3 Zrotation Yrotation Xrotation
								JOINT LeftForeArm
								{
									OFFSET 21.954697 0.000000 -2.041093
									CHANNELS 3 Zrotation Yrotation Xrotation
									JOINT LeftHand
									{
										OFFSET 22.992908 0.000000 -0.870901
										CHANNELS 3 Zrotation Yrotation Xrotation
										End Site
										{
											OFFSET 0.000000 0.000000 0.000000
										}
									}
								}
							}
						}
					}
					JOINT RightShoulder_virtual
					{
						OFFSET 0.000000 0.000000 0.000000
						CHANNELS 3 Zrotation Yrotation Xrotation
						JOINT RightShoulder
						{
							OFFSET -6.197824 13.665230 -4.064723
							CHANNELS 3 Zrotation Yrotation Xrotation
							JOINT RightArm
							{
								OFFSET -7.778132 -0.187073 -1.709282
								CHANNELS 3 Zrotation Yrotation Xrotation
								JOINT RightForeArm
								{
									OFFSET -21.954697 0.000000 -2.041093
									CHANNELS 3 Zrotation Yrotation Xrotation
									JOINT RightHand
									{
										OFFSET -22.992908 0.000000 -0.870901
										CHANNELS 3 Zrotation Yrotation Xrotation
										End Site
										{
											OFFSET 0.000000 0.000000 0.000000
										}
									}
								}
							}
						}
					}
				}
			}
		}
	}
}
MOTION
Frames: 7
Frame Time: 0.033333
6.894118 81.772690 -13.764694 179.979050 -2.079404 179.394167 -5.120260 0.250641 12.701342 4.900580 -3.246270 -20.081595 3.359863 3.623261 24.628667 2.433311 -7.505262 -9.973254 0.000000 0.000000 0.000000 -1.020569 -0.976934 13.526368 -3.681334 2.276060 -18.556053 -2.767544 4.200647 24.140750 9.561438 3.437670 -9.592125 0.000000 0.000000 0.000000 0.209561 2.089659 2.153189 -4.855508 0.671849 -4.679354 -1.049310 -3.137626 4.787291 -0.020810 0.046028 -0.130075 -1.314883 -2.052035 4.467237 0.739507 1.148049 -11.741746 0.000000 0.000000 0.000000 0.414202 -1.295055 1.839251 17.410620 9.534975 -3.168427 1.943221 -4.433314 -48.479436 -2.189219 -37.660761 -7.300567 0.000000 0.000000 0.000000 -3.938708 -0.110488 1.044365 6.051410 -12.151605 -2.796447 13.745241 -9.072556 -48.748242 -3.834556 36.046023 -5.319154 0.000000 0.000000 0.000000 
6.869581 81.765366 -13.750904 -179.972657 -2.134483 179.147010 -5.310907 0.003135 12.395537 4.881675 -3.419498 -20.347991 3.225758 3.530501 24.388577 2.366192 -7.488312 -10.136095 0.000000 0.000000 0.000000 -0.900885 -0.924030 13.310696 -3.712497 2.221850 -18.760382 -3.116788 3.572976 23.926721 9.073776 2.914225 -9.705879 0.000000 0.000000 0.000000 0.240793 2.081975 2.286141 -4.819013 0.699565 -4.603607 -1.035982 -3.137598 4.796157 0.005719 0.036099 -0.108980 -1.274897 -1.995170 4.346930 0.828503 1.063936 -11.768934 0.000000 0.000000 0.000000 0.392964 -1.245655 1.752353 17.358019 9.533879 -3.124433 1.913553 -4.399851 -48.380419 -2.416165 -37.673602 -7.068193 0.000000 0.000000 0.000000 -4.004988 -0.105611 1.044530 6.001392 -12.168167 -2.716519 13.720056 -9.129790 -48.839531 -3.756490 36.016182 -5.258867 0.000000 0.000000 0.000000 
6.857440 81.778809 -13.752606 -179.975553 -2.084698 179.170888 -5.343943 0.001975 12.362537 4.871531 -3.354977 -20.334522 3.250060 3.630758 24.318347 2.173750 -7.436713 -10.070577 0.000000 0.000000 0.000000 -0.914277 -0.941474 13.263415 -3.735589 2.226053 -18.768419 -3.119000 3.626840 24.002642 9.070481 2.930059 -9.591093 0.000000 0.000000 0.000000 0.250954 2.016439 2.201701 -4.811701 0.772496 -4.575160 -1.052828 -3.064997 4.839610 -0.026614 0.076521 -0.101778 -1.268086 -1.971289 4.405263 0.812833 1.408475 -11.760787 0.000000 0.000000 0.000000 0.380488 -1.170236 1.706800 17.267114 9.471387 -3.184867 1.989479 -4.368474 -48.412244 -2.300648 -37.618636 -7.075001 0.000000 0.000000 0.000000 -3.972967 -0.077105 0.954204 5.944925 -12.157803 -2.792359 13.647670 -9.196290 -48.670996 -3.791013 36.193118 -5.286392 0.000000 0.000000 0.000000 
6.861618 81.793587 -13.770483 -179.991399 -2.346824 179.187008 -5.369700 -0.057370 12.348903 4.872412 -3.314390 -20.346466 3.314491 3.629259 24.239078 1.823341 -7.461326 -9.958286 0.000000 0.000000 0.000000 -0.940906 -1.064404 13.231192 -3.704522 2.076569 -18.760127 -3.099042 3.518697 24.114193 9.024865 2.919387 -9.542763 0.000000 0.000000 0.000000 0.254027 1.941453 2.179094 -4.829071 0.791658 -4.573687 -1.078979 -3.075900 4.804511 -0.028611 0.038185 -0.120683 -1.259762 -1.906952 4.405751 0.885304 1.143618 -11.749527 0.000000 0.000000 0.000000 0.375148 -1.119639 1.722165 17.148512 9.278262 -3.280137 1.988812 -4.186394 -48.363231 -2.345469 -37.549532 -6.915218 0.000000 0.000000 0.000000 -3.993581 -0.062324 0.959491 6.019716 -12.150521 -2.722040 13.602542 -9.455492 -48.860124 -3.694749 36.234741 -5.232345 0.000000 0.000000 0.000000 
6.856533 81.799339 -13.792497 -179.985716 -2.409409 179.207184 -5.382851 -0.065883 12.347807 4.866080 -3.254782 -20.381296 3.407794 3.724441 24.173438 1.470299 -7.459852 -9.871469 0.000000 0.000000 0.000000 -0.973381 -1.096603 13.189943 -3.678230 2.004509 -18.783030 -3.063361 3.462825 24.250903 8.990952 2.923971 -9.487320 0.000000 0.000000 0.000000 0.277209 1.919840 2.186984 -4.830589 0.846317 -4.557266 -1.102690 -3.020730 4.734580 -0.027292 0.068752 -0.155850 -1.320466 -1.919309 4.408230 0.895832 1.082896 -11.722069 0.000000 0.000000 0.000000 0.369898 -1.171458 1.788359 17.029444 9.134104 -3.217110 2.027638 -3.924896 -48.462135 -2.174904 -37.514377 -6.877644 0.000000 0.000000 0.000000 -3.994357 -0.015197 1.034767 6.059147 -12.171729 -2.900369 13.642954 -9.775981 -48.859232 -3.497582 36.268458 -5.031103 0.000000 0.000000 0.000000 
6.856155 81.787834 -13.807192 179.990156 -2.378897 179.237250 -5.406858 -0.019030 12.316168 4.844299 -3.216902 -20.433513 3.514760 3.859943 24.152565 1.173161 -7.436783 -9.838734 0.000000 0.000000 0.000000 -1.014881 -1.059494 13.144003 -3.668283 1.973326 -18.810332 -3.045257 3.458243 24.381281 8.976127 2.959204 -9.455641 0.000000 0.000000 0.000000 0.297069 1.915236 2.122919 -4.835337 0.882559 -4.549267 -1.119751 -2.925734 4.715973 0.004511 0.130534 -0.122153 -1.334399 -1.839029 4.445309 0.983027 1.374142 -11.749980 0.000000 0.000000 0.000000 0.334952 -1.131261 1.819984 16.853908 8.834438 -3.086013 1.973449 -3.600877 -48.388567 -2.090723 -37.724661 -6.807247 0.000000 0.000000 0.000000 -4.044884 -0.034069 0.965711 6.049334 -12.141209 -2.922655 13.632738 -10.054861 -48.857060 -3.441316 36.352985 -5.044663 0.000000 0.000000 0.000000 
6.868891 81.764122 -13.793928 -179.980238 -2.436345 179.239177 -5.387082 0.039201 12.262037 4.839062 -3.226909 -20.495632 3.647253 3.896809 24.226642 0.896341 -7.476068 -9.827612 0.000000 0.000000 0.000000 -1.015036 -1.026851 13.100576 -3.627734 1.929147 -18.813327 -3.018961 3.382301 24.504832 8.936076 2.947010 -9.521007 0.000000 0.000000 0.000000 0.374681 1.958765 2.131498 -4.775645 0.859552 -4.504609 -1.123880 -2.963633 4.598760 -0.026002 0.040948 -0.069585 -1.358362 -1.856100 4.343776 1.082868 0.715244 -11.602053 0.000000 0.000000 0.000000 0.300642 -1.068330 1.769061 16.624967 8.489309 -3.090800 1.854139 -3.189575 -48.409413 -1.916972 -37.642214 -6.702821 0.000000 0.000000 0.000000 -4.060328 0.060061 1.067825 6.182933 -12.109611 -2.951244 13.529354 -10.408198 -48.945402 -3.381869 36.149773 -5.008716 0.000000 0.000000 0.000000 
